<svg width="513" height="513" viewBox="0 0 513 513" fill="none" xmlns="http://www.w3.org/2000/svg">
<g id="password logo" clip-path="url(#clip0_11_2)">
<path id="Vector" d="M368.723 368.447C364.627 368.447 360.531 366.89 357.417 363.754L310.057 316.394L262.697 363.754C256.446 370.004 246.313 370.004 240.062 363.754C233.811 357.503 233.811 347.369 240.062 341.119L298.729 282.452C304.979 276.201 315.113 276.201 321.363 282.452L380.03 341.119C386.281 347.369 386.281 357.503 380.03 363.754C376.915 366.89 372.819 368.447 368.723 368.447Z" fill="#A7A7A7"/>
<path id="Vector_2" d="M310.057 512.447C301.225 512.447 294.057 505.279 294.057 496.447V304.447C294.057 295.615 301.225 288.447 310.057 288.447C318.889 288.447 326.057 295.615 326.057 304.447V496.447C326.057 505.279 318.889 512.447 310.057 512.447Z" fill="#A7A7A7"/>
<path id="Vector_3" d="M438.057 512.447C433.961 512.447 429.865 510.89 426.75 507.754L368.083 449.087C361.833 442.836 361.833 432.703 368.083 426.452C374.334 420.201 384.467 420.201 390.718 426.452L438.078 473.812L485.438 426.452C491.689 420.201 501.822 420.201 508.073 426.452C514.323 432.703 514.323 442.836 508.073 449.087L449.406 507.754C446.249 510.89 442.153 512.447 438.057 512.447Z" fill="#A7A7A7"/>
<path id="Vector_4" d="M438.057 501.78C429.225 501.78 422.057 494.612 422.057 485.78V293.78C422.057 284.948 429.225 277.78 438.057 277.78C446.889 277.78 454.057 284.948 454.057 293.78V485.78C454.057 494.612 446.889 501.78 438.057 501.78Z" fill="#A7A7A7"/>
<path id="Vector_5" d="M198.057 427.113H48.7234C22.2701 427.113 0.723396 405.567 0.723396 379.113V197.78C0.723396 171.327 22.2701 149.78 48.7234 149.78H294.057C320.51 149.78 342.057 171.327 342.057 197.78V219.113C342.057 227.945 334.889 235.113 326.057 235.113C317.225 235.113 310.057 227.945 310.057 219.113V197.78C310.057 188.969 302.867 181.78 294.057 181.78H48.7234C39.9127 181.78 32.7234 188.969 32.7234 197.78V379.113C32.7234 387.924 39.9127 395.113 48.7234 395.113H198.057C206.889 395.113 214.057 402.281 214.057 411.113C214.057 419.945 206.889 427.113 198.057 427.113Z" fill="#A7A7A7"/>
<path id="Vector_6" d="M262.057 181.78C253.225 181.78 246.057 174.612 246.057 165.78V107.113C246.057 65.9401 212.563 32.4468 171.39 32.4468C130.217 32.4468 96.7234 65.9401 96.7234 107.113V165.78C96.7234 174.612 89.5554 181.78 80.7234 181.78C71.8914 181.78 64.7234 174.612 64.7234 165.78V107.113C64.7234 48.2974 112.574 0.446777 171.39 0.446777C230.206 0.446777 278.057 48.2974 278.057 107.113V165.78C278.057 174.612 270.889 181.78 262.057 181.78Z" fill="#A7A7A7"/>
</g>
<defs>
<clipPath id="clip0_11_2">
<rect width="512" height="512" fill="white" transform="translate(0.723404 0.446777)"/>
</clipPath>
</defs>
</svg>
